<svg xmlns="http://www.w3.org/2000/svg" viewBox="0 0 250 72">
<!-- SVG created with Arrow, by QuiverAI (https://quiver.ai) -->
  <g fill="#6E3B46">
    <path d="m37.5 1.8c-17.3-0.2-31.5 12.5-34.6 28.4-0.1 1.4-0.3 2.8-0.3 4.2 0 0.8 1.1 0.9 1.2 0.1 1.1-15.1 13-30.4 31.7-31.5 0.6 0 1.3-0.1 2-0.1 0.9 0 0.8-1.1 0-1.1z"/>
    <path d="m69.1 1.7c-0.2-1-0.5-1.2-0.7-1-2.1 2.9-5.4 5.6-11.3 6.9-3 0.7-8.4 1.1-12.5 4-4.6 3.1-7.1 8-6.4 14.6l0.4 1.8c2.2-5.2 6.3-11.3 15.8-13.8 2.2-0.6 4.6-1 7.3-2.3-1 1.4-5.5 2.4-8.3 3.6-4.9 2.1-8 4.4-11 9.2-4.4 7.2-4.2 17-6.2 26.4-1.9 8.8-6.3 14.7-13.6 14.8-3.2-0.1-6.5-1.2-8.7-4.1-0.5-0.6-1.3 0-0.9 0.7 2.5 3.5 6.3 4.9 10.2 4.9 6.9-0.2 12.6-4.8 14.8-12.9 1.4-4.6 1.9-9.6 2.5-15.5 3.1-1 5.7 0.6 9.4 0.2 2.2-0.1 3.1-1.6 3.2-2.7-3.3 1.5-9 0.2-12.4 1.1 0.5-4.1 0-11.7 7.8-12.1 2.6 0.2 7.7 0.6 12-2.3 4.9-3.3 9.4-9.8 8.6-19v-2.5z"/>
    <path d="m34.4 49.1-2.5-7.1c1.5-0.4 3-1.1 3.7-2.5 0.2-0.4-0.4-0.8-0.6-0.4-0.7 0.8-2 1.6-3.3 2l-6.2-18.9-1.3 0.2-5.9 16c-2.4-1-4.9-1.8-7.5-1.7-3.7 0.1-7.2 1.7-8.3 5.7-1.4 4.4 0.8 9.8 6.1 9.8 5.9-0.2 8.3-5.6 10.3-10.9l0.1-1.3c3.2 1.1 6.5 2.4 10 2.2l2.1 6.1 0.1 1.7 4-0.1c-0.4-0.3-0.7-0.5-0.8-0.8zm-26 2.1c-4.7 0-5.9-4.4-4.6-8.4 1.2-3 4.6-5 8.7-5 1.8 0.2 3.7 0.6 5.4 1.3l-0.1 0.3c-1.9 5-4.4 11.3-9.4 11.8zm10.9-12.6 4.5-13.1 4.9 15.8c-3-0.2-6.3-1.6-9.4-2.7z"/>
    <path d="m69.8 37.5c-0.4 0-0.5 0.3-0.5 0.6-0.2 13.5-10.7 29.4-29.2 30.9-2.2 0.3-4.5 0.3-7.5-0.1-0.8 0-1.1 1.1-0.2 1.3 7.5 0.8 15.2-0.6 21-3.9 8.5-4.7 16.3-14.5 17.1-27.9 0-0.6-0.3-1-0.7-0.9z"/>
    <circle cx="10.7" cy="57.9" r=".9"/>
    <circle cx="42.2" cy="3.2" r=".8"/>
    <circle cx="47.5" cy="4.8" r=".6"/>
    <circle cx="66.9" cy="24" r=".6"/>
    <circle cx="68.7" cy="28.7" r=".8"/>
    <circle cx="69.7" cy="33.6" r=".6"/>
  </g>
  <path d="m107.7 36.5c1-0.6 0.9-1.1 0.4-2.1l-1.7-4.2h-8.2l-1.7 4.2c-0.4 1-0.3 1.6 0.4 2.1h-3c0.8-0.4 1.4-1.2 1.7-2.1l6.9-16.8h0.6l7.2 16.9c0.3 0.9 0.8 1.5 1.5 2.1l-4.1-0.1zm-5.5-16.3-3.9 9.5h7.8l-3.9-9.5z" fill="#2E2524"/>
  <path d="m130.9 20.4c0-1.3-0.3-2.4-1.8-3h2.6c-0.7 0.6-1.1 1.7-1.1 3v16.1h-0.7l-12.8-17.5 0.1 14.5c0 1.3 0.2 2.4 1 3h-2.7c0.8-0.6 1.2-1.7 1.2-3v-14.4l-1.3-1.7h3.2l11.7 15.8 0.1-0.1-0.1-12.7z" fill="#2E2524"/>
  <path d="m149 36.5c1-0.6 0.9-1.1 0.5-2.1l-1.6-4.2h-8.6l-1.7 4.2c-0.4 1-0.3 1.6 0.4 2.1h-3c0.8-0.4 1.4-1.2 1.9-2.1l7.4-17.2h0.3l7.3 17.3c0.3 0.9 0.7 1.5 1.5 2.1l-4.4-0.1zm-5.4-16.3-4.1 9.5h8l-3.9-9.5z" fill="#2E2524"/>
  <path d="m172.8 17.9h-4.1v8.4h3.7c1.3 0 2.3-0.3 3.2-1.7v4.1c-0.8-1.6-1.9-1.9-3.2-1.9h-3.7v7.3c0 1.3 0.1 1.9 0.8 2.4h-4.1c0.8-0.5 1-1.1 1-2.4v-14.3c0-1.3-0.2-1.9-0.9-2.4h12.1l0.4 3.5c-1.1-2.1-2.7-3-5.2-3z" fill="#2E2524"/>
  <path d="m194.7 36.5h-13c0.8-0.5 1.1-1.1 1.1-2.4v-14.2c0-1.3-0.3-1.9-1.1-2.5h12.2l0.4 3.4c-1.1-2-2.7-2.9-5.2-2.9h-4v8.4h3.5c1.3 0 2.4-0.3 3.4-1.7v4.1c-0.9-1.6-2-1.9-3.3-1.9h-3.6v9.2h4.3c2.5 0 4.2-1 5.7-2.9l-0.4 3.4z" fill="#2E2524"/>
  <path d="m205.3 36.5h-6.8c0.8-0.5 1.1-1.1 1.1-2.4v-14.2c0-1.3-0.3-1.9-1-2.5h5.9c6.4 0 11.6 3.3 11.6 9.5-0.1 6.1-4.1 9.6-10.8 9.6zm-1.2-18.6h-2.1v18.1h3c5.7 0 8.5-3.3 8.5-9.1-0.1-4.9-2.9-9-9.4-9z" fill="#2E2524"/>
  <path d="m232 33.1z" fill="#2E2524"/>
  <path d="m232.1 33.1-0.5 3.4h-12c0.7-0.5 0.9-1.1 1-2.4v-14.2c0-1.3-0.4-1.9-1.1-2.5h11.8l0.4 3.4c-1.1-2-2.6-3-5.1-3h-3.5v8.5h3.4c1.3 0 2.2-0.3 3.1-1.9v4.2c-0.7-1.6-1.8-1.9-3.1-1.9h-3.4v9.4h3.9c2.4 0 4.3-0.9 5.1-2.5v-0.5z" fill="#2E2524"/>
  <path d="m247.4 36.5h-11.6c0.7-0.5 0.9-1.1 0.9-2.4v-14.2c0-1.3-0.1-1.9-0.9-2.5h4.1c-0.8 0.6-1 1.2-1 2.5v16.1h4.1c2.6 0 3.9-0.8 5.2-2.8l-0.8 3.3z" fill="#2E2524"/>
  <rect x="81.7" y="11.6" width=".4" height="45.7" fill="#2E2524"/>
  <g fill="#B89A95">
    <path d="m121.2 44v5h-0.5l-2.7-3.9v3.9h-0.6v-5h0.5l2.7 3.9v-3.9h0.6z"/>
    <path d="m126.5 47.3v-3.3h0.6v3.3c0 0.7 0.4 1.2 1.4 1.2s1.2-0.4 1.2-1.2v-3.3h0.6v3.3c0 1.1-0.7 1.8-2 1.8-1 0-1.8-0.7-1.8-1.8z"/>
    <path d="m139 44.6h-1.5v4.4h-0.6v-4.4h-1.6v-0.6h3.7v0.6z"/>
    <path d="m146.2 47.1h-1.2v1.9h-0.6v-5h1.9c0.8 0 1.6 0.6 1.6 1.6 0 0.7-0.4 1.2-1 1.4l1 2h-0.6l-1.1-1.9zm-1.2-0.5h1.3c0.6 0 1-0.4 1-1s-0.4-1-1-1h-1.3v2z"/>
    <path d="m154 44v5h-0.6v-5h0.6z"/>
    <path d="m159.2 46.5c0-1.4 1.1-2.6 2.6-2.6 0.9 0 1.7 0.5 2.2 1.2l-0.5 0.3c-0.3-0.5-0.9-0.9-1.7-0.9-1.2 0-2.1 0.9-2.1 2.1s0.8 2 2 2c0.8 0 1.4-0.4 1.7-0.9l0.6 0.3c-0.4 0.7-1.2 1.2-2.2 1.2-1.6-0.1-2.6-1.2-2.6-2.7z"/>
    <path d="m169.9 44v5h-0.5v-5h0.5z"/>
    <path d="m175.4 46.5c0-1.4 1.1-2.6 2.6-2.6s2.7 1.2 2.7 2.6c0 1.5-1.1 2.6-2.7 2.6-1.5 0-2.6-1.1-2.6-2.6zm4.5 0c0-1.1-0.9-2-2-2s-1.9 0.9-1.9 2 0.8 2 1.9 2c1.2 0 2-0.8 2-2z"/>
    <path d="m190 44v5h-0.5l-2.7-3.9v3.9h-0.6v-5h0.5l2.7 3.9v-3.9h0.6z"/>
    <path d="m196.1 44v5h-0.5v-5h0.5z"/>
    <path d="m201.1 47.8 0.5-0.3c0.2 0.6 0.6 1 1.4 1 0.7 0 1.1-0.3 1.1-0.8s-0.4-0.7-1.2-1-1.6-0.5-1.6-1.4c0-0.8 0.7-1.4 1.5-1.4s1.5 0.5 1.7 1.2l-0.5 0.3c-0.2-0.5-0.5-0.8-1.1-0.8s-0.9 0.3-0.9 0.8 0.3 0.7 1 0.9c0.9 0.3 1.7 0.5 1.7 1.5 0 0.9-0.7 1.4-1.7 1.4-1-0.1-1.7-0.6-1.9-1.4z"/>
    <path d="m213.7 44.6h-1.5v4.6h-0.6v-4.6h-1.7v-0.6h3.8v0.6z"/>
    <path d="m221.5 49.1-0.4-1.1h-2.1l-0.4 1.1h-0.6l1.7-5.1h0.7l2 5.1h-0.9zm-2.3-1.7h1.9l-0.9-2.6-1 2.6z"/>
  </g>
  <g fill="#4F3A3D">
    <path d="m140.7 58.7c0-1.2 0.9-2.1 2.1-2.1 0.8 0 1.5 0.4 2 1l-0.4 0.3c-0.3-0.5-0.8-0.8-1.5-0.8-1 0-1.7 0.7-1.7 1.7s0.7 1.7 1.7 1.7c0.6 0 1.2-0.3 1.5-0.7l0.4 0.2c-0.4 0.6-1.1 1-1.9 1-1.3 0.1-2.2-0.9-2.2-2.3z"/>
    <path d="m149.7 59.1h-1.1v1.7h-0.5v-4.2h1.6c0.7 0 1.4 0.5 1.4 1.3 0 0.6-0.3 1.1-0.8 1.2l1 1.9h-0.6l-1-1.9zm-1.1-0.4h1.2c0.4 0 0.8-0.4 0.8-0.8s-0.4-0.8-0.8-0.8h-1.2v1.6z"/>
    <path d="m157.6 56.7v4.3h-0.2l-2.3-3.3v3.2h-0.5v-4.2h0.4l2.2 3.2v-3.3l0.4 0.1z"/>
    <path d="m161.2 58.7h2.1v0.4h-2.1v-0.4z"/>
    <path d="m169.4 59.6c0 0.9-0.7 1.4-1.5 1.4-0.6 0-1.1-0.3-1.4-0.8l0.4-0.2c0.2 0.4 0.5 0.5 0.9 0.5 0.6 0 1-0.3 1-0.9 0-0.5-0.4-0.9-1-0.9h-0.1l-0.2-0.3 1-1.3h-1.8v-0.5h2.4v0.4l-1 1.3c0.8 0.1 1.3 0.5 1.3 1.3z"/>
    <path d="m179.4 59.1-1.2 1.8h-0.6l1-1.5h-0.3c-0.8 0-1.5-0.6-1.5-1.4s0.6-1.4 1.4-1.4 1.4 0.6 1.4 1.4c0 0.5-0.1 0.8-0.2 1.1zm-1.2-0.1c0.6 0 1-0.4 1-0.9s-0.4-0.9-1-0.9-0.9 0.4-0.9 0.9 0.3 0.9 0.9 0.9z"/>
    <path d="m184 56.6v4.4h-0.4v-3.8l-1 0.3-0.1-0.4 1.1-0.4 0.4-0.1z"/>
    <path d="m190.1 56.6v0.4l-1.6 4h-0.5l1.6-3.8h-2.2v-0.5l2.7-0.1z"/>
    <path d="m192.8 60.5 1.5-1.5c0.4-0.4 0.7-0.7 0.7-1.1 0-0.5-0.4-0.8-0.8-0.8s-0.7 0.2-0.9 0.6l-0.4-0.2c0.3-0.6 0.8-0.9 1.4-0.9s1.3 0.4 1.3 1.3c0 0.6-0.4 1-0.9 1.5l-1.1 1.1h2v0.5h-2.8v-0.5z"/>
    <path d="m201.2 59.6c0 0.9-0.7 1.4-1.5 1.4-0.6 0-1.1-0.3-1.4-0.8l0.4-0.2c0.2 0.4 0.5 0.5 0.9 0.5 0.6 0 1-0.3 1-0.9 0-0.5-0.4-0.9-1-0.9h-0.1l-0.2-0.3 1-1.3h-1.8v-0.5h2.4v0.4l-0.9 1.3c0.6 0.1 1.2 0.5 1.2 1.3z"/>
  </g>
  <rect x="105.9" y="58.5" width="28.3" height=".4" fill="#4F3A3D"/>
  <rect x="206.9" y="58.5" width="28.2" height=".4" fill="#4F3A3D"/>
</svg>