<svg xmlns="http://www.w3.org/2000/svg" viewBox="0 0 72 72">
<!-- SVG created with Arrow, by QuiverAI (https://quiver.ai) -->
  <g fill="#5a4a3b">
    <path d="m37.5 1.8c-17.3-0.2-31.5 12.5-34.6 28.4-0.1 1.4-0.3 2.8-0.3 4.2 0 0.8 1.1 0.9 1.2 0.1 1.1-15.1 13-30.4 31.7-31.5 0.6 0 1.3-0.1 2-0.1 0.9 0 0.8-1.1 0-1.1z"/>
    <path d="m69.1 1.7c-0.2-1-0.5-1.2-0.7-1-2.1 2.9-5.4 5.6-11.3 6.9-3 0.7-8.4 1.1-12.5 4-4.6 3.1-7.1 8-6.4 14.6l0.4 1.8c2.2-5.2 6.3-11.3 15.8-13.8 2.2-0.6 4.6-1 7.3-2.3-1 1.4-5.5 2.4-8.3 3.6-4.9 2.1-8 4.4-11 9.2-4.4 7.2-4.2 17-6.2 26.4-1.9 8.8-6.3 14.7-13.6 14.8-3.2-0.1-6.5-1.2-8.7-4.1-0.5-0.6-1.3 0-0.9 0.7 2.5 3.5 6.3 4.9 10.2 4.9 6.9-0.2 12.6-4.8 14.8-12.9 1.4-4.6 1.9-9.6 2.5-15.5 3.1-1 5.7 0.6 9.4 0.2 2.2-0.1 3.1-1.6 3.2-2.7-3.3 1.5-9 0.2-12.4 1.1 0.5-4.1 0-11.7 7.8-12.1 2.6 0.2 7.7 0.6 12-2.3 4.9-3.3 9.4-9.8 8.6-19v-2.5z"/>
    <path d="m34.4 49.1-2.5-7.1c1.5-0.4 3-1.1 3.7-2.5 0.2-0.4-0.4-0.8-0.6-0.4-0.7 0.8-2 1.6-3.3 2l-6.2-18.9-1.3 0.2-5.9 16c-2.4-1-4.9-1.8-7.5-1.7-3.7 0.1-7.2 1.7-8.3 5.7-1.4 4.4 0.8 9.8 6.1 9.8 5.9-0.2 8.3-5.6 10.3-10.9l0.1-1.3c3.2 1.1 6.5 2.4 10 2.2l2.1 6.1 0.1 1.7 4-0.1c-0.4-0.3-0.7-0.5-0.8-0.8zm-26 2.1c-4.7 0-5.9-4.4-4.6-8.4 1.2-3 4.6-5 8.7-5 1.8 0.2 3.7 0.6 5.4 1.3l-0.1 0.3c-1.9 5-4.4 11.3-9.4 11.8zm10.9-12.6 4.5-13.1 4.9 15.8c-3-0.2-6.3-1.6-9.4-2.7z"/>
    <path d="m69.8 37.5c-0.4 0-0.5 0.3-0.5 0.6-0.2 13.5-10.7 29.4-29.2 30.9-2.2 0.3-4.5 0.3-7.5-0.1-0.8 0-1.1 1.1-0.2 1.3 7.5 0.8 15.2-0.6 21-3.9 8.5-4.7 16.3-14.5 17.1-27.9 0-0.6-0.3-1-0.7-0.9z"/>
    <circle cx="10.7" cy="57.9" r=".9"/>
    <circle cx="42.2" cy="3.2" r=".8"/>
    <circle cx="47.5" cy="4.8" r=".6"/>
    <circle cx="66.9" cy="24" r=".6"/>
    <circle cx="68.7" cy="28.7" r=".8"/>
    <circle cx="69.7" cy="33.6" r=".6"/>
  </g>
</svg>